<?xml version="1.0" standalone="no"?>
<!DOCTYPE svg PUBLIC "-//W3C//DTD SVG 20010904//EN"
 "http://www.w3.org/TR/2001/REC-SVG-20010904/DTD/svg10.dtd">
<svg version="1.0" xmlns="http://www.w3.org/2000/svg"
 width="779.863385pt" height="889.737739pt" viewBox="0 0 779.863385 889.737739"
 preserveAspectRatio="xMidYMid meet">
<metadata>
Created by potrace 1.16, written by Peter Selinger 2001-2019
</metadata>
<g transform="translate(-150.000000,983.737739) scale(0.100000,-0.100000)"
fill="#fafafa" stroke="none">
<path d="M5970 9834 c-49 -21 -85 -76 -94 -149 -9 -65 -2 -82 94 -235 58 -93
78 -132 73 -148 -6 -24 -13 -25 -61 -16 -30 6 -31 7 -25 53 l5 47 -63 11 c-35
6 -67 7 -72 4 -4 -4 -10 -37 -13 -72 -11 -116 35 -167 165 -187 139 -20 202
31 205 167 1 64 -1 69 -58 161 -32 52 -70 111 -82 131 -13 19 -24 50 -24 68 0
30 2 33 23 27 12 -3 32 -6 45 -6 21 0 22 -3 16 -49 l-6 -48 66 -13 c37 -7 69
-10 72 -7 3 3 8 38 10 79 7 90 -13 129 -80 158 -44 20 -169 35 -196 24z"/>
<path d="M4448 9773 c-107 -27 -138 -39 -138 -52 1 -20 157 -651 163 -657 5
-6 299 67 310 76 8 7 -16 116 -27 128 -4 3 -39 -2 -79 -11 -105 -25 -102 -26
-120 43 -8 33 -12 62 -8 64 3 2 40 11 81 21 41 10 79 21 83 25 5 4 3 35 -4 69
-15 71 -15 71 -127 42 -53 -14 -74 -16 -77 -8 -39 118 -37 122 60 142 47 10
87 21 89 24 1 3 -4 34 -12 69 -17 75 -6 73 -194 25z"/>
<path d="M7447 9268 c-26 -36 -349 -506 -360 -525 -7 -12 83 -83 106 -83 6 0
45 50 86 110 77 116 75 115 125 76 10 -8 16 -19 15 -23 -3 -7 -89 -133 -137
-202 -12 -17 -8 -23 44 -60 32 -23 61 -38 65 -34 9 10 389 564 389 567 0 9
-111 77 -119 72 -5 -3 -41 -53 -81 -111 -39 -58 -74 -105 -78 -105 -4 1 -20
12 -37 25 l-29 24 70 103 c39 57 74 108 77 115 4 6 -15 25 -47 47 -30 20 -57
36 -60 36 -3 0 -16 -15 -29 -32z"/>
<path d="M3083 9129 c-29 -22 -53 -41 -53 -42 0 -1 20 -53 45 -116 25 -63 44
-116 42 -118 -2 -2 -36 37 -76 87 -39 49 -75 90 -78 90 -10 0 -103 -74 -103
-82 0 -8 107 -147 334 -435 l89 -112 26 19 c14 11 39 31 55 44 l29 24 -37 47
c-20 27 -35 50 -33 52 2 2 28 -8 58 -22 30 -14 60 -25 67 -25 14 0 122 79 122
89 0 3 -60 34 -133 69 l-132 63 -76 201 c-42 111 -80 203 -85 205 -5 1 -33
-15 -61 -38z"/>
<path d="M5665 8656 c-16 -7 -44 -27 -61 -45 l-31 -32 -84 11 c-164 21 -377
24 -469 6 -343 -64 -527 -380 -547 -933 -6 -174 -9 -180 -54 -144 -43 33 -167
90 -246 113 -106 31 -329 33 -413 4 -224 -77 -357 -242 -390 -484 -11 -82 -1
-222 20 -278 6 -14 10 -40 10 -58 0 -18 5 -48 11 -67 14 -42 88 -148 147 -210
l43 -47 -69 -119 c-140 -245 -226 -510 -268 -823 -19 -148 -14 -471 10 -610
59 -346 201 -650 421 -903 42 -48 82 -87 89 -87 6 0 43 11 81 23 l70 24 -72
74 c-95 98 -132 145 -197 242 -293 447 -353 1065 -159 1647 45 135 145 341
223 457 l61 92 -83 83 c-101 100 -158 183 -158 230 0 18 -7 55 -15 82 -55 181
-7 396 114 509 90 84 188 119 333 118 232 -1 468 -130 570 -311 17 -30 33 -57
35 -59 1 -2 13 1 26 6 22 10 23 15 17 65 -26 192 -19 494 16 688 58 323 194
505 412 551 97 20 457 -1 626 -37 28 -6 28 -5 22 28 -9 48 14 78 62 78 47 0
206 -42 266 -71 41 -19 46 -25 46 -55 0 -21 -6 -37 -17 -43 -10 -5 -16 -11
-13 -14 3 -2 74 -27 158 -56 350 -118 590 -245 681 -360 61 -77 75 -124 74
-246 0 -93 -23 -292 -39 -346 -4 -14 12 -15 128 -15 145 0 188 -9 294 -62 351
-177 241 -732 -165 -837 -44 -11 -94 -15 -162 -13 -55 2 -99 0 -99 -3 0 -3 11
-19 25 -35 154 -179 282 -415 351 -649 60 -202 71 -516 26 -711 -86 -368 -316
-698 -664 -953 -42 -31 -77 -58 -78 -61 0 -3 29 -15 66 -28 l65 -23 42 33
c460 360 706 824 707 1333 0 312 -93 635 -261 901 -21 33 -39 65 -39 70 0 5
23 15 51 21 262 63 449 314 449 603 0 227 -94 379 -292 474 -85 40 -126 51
-263 71 l-40 6 0 192 0 192 -32 66 c-89 182 -277 307 -694 463 l-140 53 -23
50 c-28 60 -62 86 -157 119 -167 58 -294 76 -354 50z"/>
<path d="M6025 8120 c-61 -19 -93 -65 -120 -170 -16 -63 -71 -265 -181 -660
-30 -107 -54 -202 -54 -211 0 -13 15 -18 68 -23 325 -33 722 -169 853 -293
l26 -24 21 78 c45 168 112 533 137 748 22 188 20 306 -4 337 -23 29 -108 69
-218 103 -43 13 -137 45 -209 70 -138 48 -256 65 -319 45z m122 -124 c14 -16
23 -40 23 -59 0 -46 -37 -174 -65 -224 l-23 -42 24 -22 c30 -28 30 -53 0 -182
-14 -56 -32 -140 -40 -187 -23 -120 -38 -134 -154 -138 -123 -5 -123 -5 -77
148 24 80 34 131 30 150 -4 20 16 104 68 282 41 139 77 266 81 282 7 28 8 28
58 24 40 -4 57 -12 75 -32z m163 -41 c10 -11 10 -25 1 -59 -6 -24 -18 -118
-26 -208 -8 -90 -18 -179 -21 -198 -3 -21 -2 -31 4 -25 7 8 75 177 160 400 22
57 43 75 65 57 13 -11 13 -20 1 -70 -7 -31 -30 -131 -49 -222 -35 -157 -112
-481 -136 -563 -8 -31 -14 -38 -32 -35 -13 2 -23 11 -25 24 -2 11 20 112 48
224 27 112 50 207 50 210 -1 9 -72 -173 -106 -270 -32 -93 -49 -115 -72 -88
-8 10 -7 38 2 103 8 50 16 119 19 155 6 64 6 63 -24 -45 -16 -60 -39 -145 -51
-187 -18 -69 -23 -78 -43 -78 -31 0 -37 21 -20 77 7 26 38 145 69 263 30 118
68 267 84 330 17 63 33 132 36 152 6 36 28 68 45 68 5 0 14 -7 21 -15z m271
-85 c4 -14 8 -65 9 -115 1 -49 5 -103 9 -120 6 -28 9 -25 40 50 54 129 69 155
92 155 36 0 32 -29 -19 -143 -28 -61 -64 -144 -81 -184 l-31 -71 0 -229 c0
-237 -3 -253 -42 -253 -16 0 -18 15 -20 163 l-3 162 -52 -130 c-54 -136 -70
-158 -97 -136 -20 17 -22 10 76 248 l79 191 -9 209 c-5 114 -7 214 -4 221 8
22 46 9 53 -18z"/>
<path d="M6065 7949 c-20 -57 -65 -222 -61 -227 11 -10 45 30 71 81 28 58 33
128 10 147 -12 10 -16 10 -20 -1z"/>
<path d="M5968 7623 c-6 -15 -12 -57 -13 -93 -2 -36 -12 -96 -24 -135 -47
-150 -54 -176 -49 -181 13 -12 76 26 96 57 27 45 72 212 72 269 0 48 -18 83
-51 100 -16 9 -21 7 -31 -17z"/>
<path d="M8400 7999 c-228 -139 -238 -146 -260 -182 -34 -56 -20 -119 48 -221
50 -73 122 -85 211 -35 122 68 338 203 364 227 53 50 55 113 6 197 -56 94 -83
115 -154 114 -45 0 -65 -9 -215 -100z m239 -75 c12 -20 21 -38 19 -39 -2 -1
-80 -50 -175 -108 l-172 -105 -22 35 c-16 26 -19 37 -10 46 13 13 322 205 333
206 3 1 16 -15 27 -35z"/>
<path d="M2001 7906 c-17 -29 -31 -57 -31 -62 0 -11 24 -25 347 -208 134 -76
247 -135 252 -132 12 8 61 95 61 110 0 6 -24 24 -53 40 -89 49 -296 166 -421
238 -65 37 -120 68 -121 68 -2 0 -17 -24 -34 -54z"/>
<path d="M5100 7788 c-71 -28 -142 -99 -169 -173 -34 -92 -36 -90 89 -119 60
-14 149 -33 197 -41 89 -16 279 -22 291 -10 12 12 7 159 -7 205 -18 62 -92
133 -154 148 -73 19 -184 14 -247 -10z"/>
<path d="M4885 7461 c-6 -11 -35 -141 -35 -161 0 -14 17 -22 78 -39 79 -21
407 -85 498 -97 l51 -6 8 88 c3 49 9 99 12 110 4 20 -1 22 -79 28 -114 10
-345 43 -446 65 -45 10 -84 15 -87 12z m93 -109 c3 -16 -2 -22 -17 -22 -24 0
-35 15 -27 36 9 23 40 13 44 -14z m200 -40 c3 -16 -2 -22 -17 -22 -24 0 -35
15 -27 36 9 23 40 13 44 -14z m182 -22 c0 -23 -13 -32 -34 -24 -19 7 -21 25
-5 41 16 16 39 5 39 -17z"/>
<path d="M3924 7379 c-98 -12 -190 -71 -226 -144 -28 -55 -41 -135 -36 -220 7
-99 30 -156 86 -210 32 -29 42 -47 42 -70 0 -23 10 -41 38 -68 21 -20 43 -37
49 -37 6 0 48 39 94 86 104 106 246 221 384 309 l104 67 -20 40 c-85 166 -309
273 -515 247z m252 -164 c30 -12 35 -19 32 -42 l-3 -28 -96 0 c-89 0 -98 -2
-132 -28 -49 -37 -69 -79 -76 -156 -7 -71 -26 -96 -55 -72 -19 16 -22 105 -4
163 16 55 83 126 143 154 59 28 138 31 191 9z"/>
<path d="M6886 7034 c-3 -9 -6 -25 -6 -37 -1 -12 -16 -73 -34 -134 l-33 -113
42 0 c59 0 89 27 114 102 27 81 28 151 1 178 -24 24 -75 27 -84 4z"/>
<path d="M4556 6975 c-408 -226 -717 -568 -875 -967 -93 -237 -128 -401 -137
-648 -17 -445 131 -856 419 -1166 38 -41 86 -87 107 -104 l39 -31 151 47 c120
38 150 51 146 63 -101 307 -113 601 -36 826 23 67 24 75 9 75 -22 0 -134 55
-184 89 -92 65 -223 182 -265 237 -52 68 -85 142 -101 223 -11 60 -15 65 -60
92 -44 28 -50 36 -73 107 -14 42 -26 87 -26 100 0 40 28 80 62 91 34 11 392
46 584 57 l110 7 25 46 c79 149 286 148 374 -3 9 -16 28 -16 330 4 579 38 827
63 891 92 40 17 59 19 115 14 64 -6 219 16 475 65 73 14 88 10 114 -33 28 -46
25 -70 -10 -93 -16 -11 -30 -27 -30 -37 0 -9 16 -91 35 -182 19 -92 35 -190
35 -219 -1 -69 -30 -131 -87 -184 -40 -38 -44 -45 -32 -59 12 -15 9 -21 -24
-49 -52 -45 -140 -87 -174 -83 -39 4 -43 35 -6 48 47 17 103 43 100 46 -1 2
-32 -8 -68 -21 -125 -45 -329 -57 -438 -25 -19 5 -36 8 -39 6 -2 -2 18 -19 45
-37 66 -46 201 -183 245 -250 89 -134 146 -282 174 -448 28 -163 12 -378 -41
-548 -11 -33 3 -29 86 28 232 160 416 354 532 560 47 85 95 211 125 327 24 97
26 125 26 292 1 210 -12 286 -74 460 -42 120 -72 182 -142 295 -88 141 -261
341 -303 349 -11 2 -60 16 -110 31 -156 45 -254 58 -415 52 -238 -8 -333 -39
-551 -183 -134 -89 -200 -117 -280 -122 -84 -5 -127 13 -234 100 -227 183
-474 260 -786 242 l-126 -6 -21 27 c-25 31 -28 62 -8 88 19 25 163 41 311 33
201 -10 348 -49 475 -127 198 -122 268 -159 329 -174 95 -25 106 -21 446 152
148 76 229 99 410 119 l60 6 -60 19 c-235 75 -493 127 -805 164 -323 37 -460
70 -578 136 -29 16 -57 27 -62 24 -6 -4 -10 -1 -10 4 0 17 -10 14 -114 -44z
m1044 -324 c0 -11 -21 -27 -57 -45 -32 -15 -91 -50 -131 -77 -83 -57 -81 -57
-155 18 -33 34 -46 55 -41 66 10 28 37 20 79 -23 21 -22 43 -40 47 -40 4 0 30
15 56 34 62 45 170 96 188 89 8 -3 14 -13 14 -22z m-1525 -1516 c0 -13 -8 -21
-22 -23 -19 -3 -23 1 -23 23 0 22 4 26 23 23 14 -2 22 -10 22 -23z m130 -136
c0 -17 -6 -24 -20 -24 -23 0 -33 34 -13 46 20 13 33 5 33 -22z m-40 -229 c3
-5 8 -72 10 -147 2 -76 6 -151 7 -168 2 -24 -1 -30 -17 -30 -33 0 -48 63 -49
200 -1 66 2 128 6 138 8 18 33 23 43 7z m2782 -6 c7 -19 -33 -105 -76 -165
-66 -90 -181 -199 -212 -199 -32 0 -30 29 4 58 76 64 152 151 193 221 24 42
44 81 44 88 0 19 40 16 47 -3z"/>
<path d="M1589 6597 c-19 -12 -40 -35 -48 -51 -12 -26 -40 -199 -41 -256 l0
-26 343 -41 c188 -22 343 -40 344 -39 1 1 10 62 19 136 l17 134 -22 41 c-30
56 -71 74 -186 82 -86 5 -94 4 -111 -15 l-18 -21 -25 29 c-22 25 -37 32 -96
40 -107 15 -138 12 -176 -13z m209 -132 c2 -2 1 -23 -3 -47 -6 -43 -8 -44 -38
-41 -98 11 -97 11 -97 52 0 21 3 40 6 43 5 6 125 -1 132 -7z m241 -31 c30 -6
32 -9 29 -48 l-3 -41 -60 3 c-33 2 -63 7 -67 11 -4 3 -5 23 -1 44 5 34 8 37
38 37 18 0 47 -3 64 -6z"/>
<path d="M9140 6605 c-52 -7 -200 -25 -328 -41 l-232 -27 5 -34 c3 -18 8 -49
11 -69 l5 -36 62 6 c34 4 85 10 113 13 l52 5 7 -53 c12 -86 43 -131 101 -148
36 -10 255 13 292 31 14 7 37 29 50 48 23 33 24 40 17 135 -10 150 -17 180
-40 181 -11 1 -63 -4 -115 -11z m16 -180 c3 -20 4 -39 0 -42 -7 -8 -96 -21
-142 -22 -29 -1 -32 3 -39 35 -3 20 -4 38 -2 40 5 5 110 21 149 23 23 1 28 -4
34 -34z"/>
<path d="M6254 6166 c-30 -46 -253 -571 -265 -625 -7 -29 -4 -38 21 -62 53
-53 86 -36 129 66 16 39 73 171 127 295 53 124 99 243 101 266 4 36 1 44 -22
63 -37 28 -71 27 -91 -3z"/>
<path d="M4585 6158 c-27 -14 -75 -60 -75 -70 0 -20 76 2 116 34 14 11 6 48
-10 48 -6 0 -20 -6 -31 -12z"/>
<path d="M6458 6088 c-7 -13 -31 -68 -54 -123 -23 -55 -59 -138 -79 -185 -20
-47 -47 -110 -60 -140 -12 -30 -32 -77 -44 -105 -25 -56 -17 -95 19 -95 21 0
20 -2 90 165 21 50 72 171 114 269 42 99 76 187 76 196 0 19 -19 40 -37 40 -7
0 -18 -10 -25 -22z"/>
<path d="M4565 5967 c-8 -13 -32 -66 -54 -118 -21 -52 -59 -141 -84 -199 -144
-339 -142 -330 -107 -367 27 -30 57 -37 83 -20 14 9 47 73 91 178 38 90 98
232 133 314 47 111 62 157 57 177 -12 56 -90 79 -119 35z"/>
<path d="M4766 5878 c-8 -18 -42 -98 -76 -178 -34 -80 -68 -158 -75 -175 -41
-91 -95 -230 -95 -245 0 -22 26 -44 43 -37 7 3 35 56 62 119 26 62 62 147 80
188 18 41 56 130 85 196 44 102 50 125 41 143 -18 32 -48 26 -65 -11z"/>
<path d="M5345 5878 c-11 -6 -29 -19 -40 -29 -11 -10 -53 -25 -94 -33 -186
-39 -316 -140 -336 -261 l-7 -40 25 50 c27 57 95 123 159 156 171 88 431 91
608 7 79 -38 161 -117 183 -178 l17 -45 -6 40 c-8 57 -30 99 -78 146 -47 48
-153 102 -233 120 -34 8 -58 19 -64 32 -11 20 -67 47 -96 47 -10 0 -27 -6 -38
-12z"/>
<path d="M5104 5660 c-66 -37 -100 -78 -119 -142 -17 -59 -19 -96 -5 -118 8
-12 10 -11 10 6 0 28 50 103 90 137 18 16 55 39 82 53 35 18 48 30 44 40 -3 9
-6 24 -6 35 0 28 -36 24 -96 -11z"/>
<path d="M1652 5628 c4 -10 101 -14 431 -16 375 -2 427 0 427 13 0 13 -53 15
-431 15 -340 0 -430 -3 -427 -12z"/>
<path d="M8110 5625 c0 -13 59 -15 492 -13 382 2 492 6 496 16 3 9 -100 12
-492 12 -436 0 -496 -2 -496 -15z"/>
<path d="M5590 5585 c0 -20 5 -25 25 -25 20 0 25 5 25 25 0 20 -5 25 -25 25
-20 0 -25 -5 -25 -25z"/>
<path d="M5644 5495 c-9 -23 3 -45 26 -45 25 0 37 25 20 45 -16 19 -39 19 -46
0z"/>
<path d="M1730 5468 c0 -4 5 -10 10 -13 6 -3 10 -31 10 -62 0 -41 -5 -59 -17
-69 -16 -12 -10 -13 44 -14 53 0 64 3 77 22 14 19 14 25 1 44 -9 14 -11 25 -5
29 18 11 11 44 -13 59 -22 15 -107 18 -107 4z m90 -38 c0 -13 -7 -20 -20 -20
-13 0 -20 7 -20 20 0 13 7 20 20 20 13 0 20 -7 20 -20z m5 -75 c0 -13 -8 -21
-22 -23 -19 -3 -23 1 -23 23 0 22 4 26 23 23 14 -2 22 -10 22 -23z"/>
<path d="M1975 5471 c-3 -2 0 -10 6 -18 13 -15 3 -123 -12 -123 -5 0 -9 -4 -9
-10 0 -5 16 -10 35 -10 19 0 35 5 35 10 0 6 -4 10 -10 10 -5 0 -10 21 -9 48
l1 47 24 -53 c13 -29 28 -51 32 -48 5 3 17 23 27 45 10 22 21 39 24 37 11 -7
5 -65 -9 -81 -11 -13 -7 -15 29 -15 37 0 56 13 31 22 -16 5 -25 114 -11 122
19 12 12 26 -11 22 -13 -3 -26 -5 -29 -5 -4 -1 -14 -21 -23 -46 -10 -25 -21
-45 -25 -45 -5 0 -17 22 -28 48 -15 36 -25 48 -42 48 -12 0 -24 -2 -26 -5z"/>
<path d="M2283 5467 c-3 -5 4 -15 16 -23 43 -31 44 -50 5 -94 l-36 -40 37 0
c31 0 35 3 30 19 -8 25 22 51 36 30 4 -8 6 -22 3 -31 -4 -15 1 -18 35 -18 23
0 41 5 41 10 0 6 -6 10 -12 10 -7 0 -23 16 -35 35 l-23 34 31 36 c17 19 29 35
28 36 -2 0 -17 2 -32 3 -22 1 -27 -2 -24 -16 6 -23 -18 -44 -29 -26 -5 7 -7
20 -6 29 2 12 -5 16 -29 15 -17 -1 -33 -5 -36 -9z"/>
<path d="M8188 5469 c-30 -17 -22 -56 17 -81 41 -27 47 -58 11 -58 -16 0 -26
7 -29 21 -7 24 -27 16 -27 -11 0 -29 73 -43 98 -18 26 26 1 88 -35 88 -9 0
-23 22 -23 36 0 9 39 4 45 -6 10 -17 25 -11 25 9 0 29 -47 41 -82 20z"/>
<path d="M8384 5468 c-2 -3 0 -9 6 -13 13 -8 13 -125 0 -125 -5 0 -10 -4 -10
-10 0 -5 18 -10 40 -10 40 0 53 13 24 24 -28 11 -11 41 26 46 27 4 37 11 45
34 8 24 6 31 -13 47 -23 18 -108 24 -118 7z m100 -27 c4 -5 3 -17 0 -26 -10
-24 -48 -15 -52 13 -3 18 1 22 22 22 14 0 27 -4 30 -9z"/>
<path d="M8645 5455 c-18 -18 -25 -35 -25 -65 0 -51 27 -80 74 -80 48 0 65 8
82 42 44 85 -64 170 -131 103z m93 -17 c17 -17 15 -74 -4 -92 -46 -47 -107 22
-74 85 12 22 59 26 78 7z"/>
<path d="M8908 5472 c-19 -4 -26 -42 -8 -42 6 0 10 5 10 10 0 6 7 10 15 10 12
0 15 -13 15 -60 0 -33 -4 -60 -10 -60 -5 0 -10 -4 -10 -10 0 -5 16 -10 35 -10
34 0 46 12 25 25 -5 3 -10 31 -10 61 0 47 2 54 20 54 11 0 20 -4 20 -10 0 -5
5 -10 10 -10 15 0 12 40 -2 41 -43 4 -95 4 -110 1z"/>
<path d="M5760 5308 c-61 -53 -224 -118 -297 -118 -23 0 -23 -1 -9 -35 54
-128 205 -219 406 -245 47 -6 101 -13 121 -15 37 -5 37 -5 43 39 4 24 4 56 0
70 -14 56 67 91 100 44 21 -29 20 -107 0 -183 -23 -85 -22 -90 6 -93 71 -9
100 -23 100 -46 0 -41 -19 -47 -99 -31 -71 15 -73 15 -100 -7 -15 -13 -43 -50
-62 -83 -52 -92 -170 -204 -259 -249 -100 -49 -168 -66 -270 -66 -133 0 -248
36 -370 116 -112 73 -229 213 -277 330 l-18 45 -80 -7 c-141 -14 -150 -13
-153 18 -4 35 17 44 111 53 50 5 67 10 63 20 -18 47 -46 151 -46 170 0 33 -10
36 -73 24 l-55 -11 -20 -57 c-34 -94 -42 -135 -50 -253 -9 -145 1 -266 35
-401 33 -137 37 -142 89 -128 152 42 267 -29 309 -189 24 -94 21 -170 -9 -237
-15 -30 -26 -57 -26 -58 0 -6 121 -35 170 -40 30 -3 75 -8 99 -11 l44 -6 -6
62 c-15 141 65 186 257 145 57 -12 111 -33 208 -83 5 -2 12 7 17 20 22 57 90
87 204 88 43 0 112 -7 154 -16 41 -8 81 -13 88 -10 25 9 106 127 150 218 70
145 88 226 89 398 1 89 -4 166 -12 200 -68 279 -217 488 -437 611 -38 21 -77
39 -85 38 -8 0 -31 -14 -50 -31z m158 -182 c-2 -13 -10 -21 -23 -21 -23 0 -33
34 -14 45 20 13 40 -1 37 -24z m-43 -141 c0 -22 -31 -33 -47 -17 -17 17 -1 44
24 40 15 -2 23 -10 23 -23z m-443 -824 l119 -6 -65 -93 c-35 -51 -67 -89 -70
-84 -3 5 -17 7 -30 5 -22 -4 -28 2 -54 53 -17 33 -44 72 -61 88 -49 47 -35 92
18 59 16 -11 64 -18 143 -22z"/>
<path d="M4929 5225 c-34 -31 -83 -67 -109 -82 l-46 -26 7 -53 c4 -29 12 -69
18 -87 l12 -35 67 5 c207 13 360 82 413 184 26 52 24 59 -17 59 -53 0 -149 27
-215 61 -32 16 -61 29 -63 29 -3 0 -33 -25 -67 -55z m19 -149 c6 -29 -15 -43
-35 -24 -14 14 -14 20 -3 33 16 19 34 15 38 -9z"/>
<path d="M1650 5175 c0 -13 54 -15 430 -15 376 0 430 2 430 15 0 13 -54 15
-430 15 -376 0 -430 -2 -430 -15z"/>
<path d="M8110 5175 c0 -13 62 -15 495 -15 433 0 495 2 495 15 0 13 -62 15
-495 15 -433 0 -495 -2 -495 -15z"/>
<path d="M5582 4670 c-28 -20 -51 -48 -65 -78 l-20 -47 -10 35 c-5 19 -7 51
-5 72 l4 38 -36 -6 c-74 -12 -188 -47 -255 -79 -78 -36 -176 -105 -172 -120 5
-18 152 -85 233 -105 98 -25 252 -27 339 -5 77 20 196 76 223 105 35 38 45 82
32 144 -13 64 -11 62 -135 71 -90 7 -90 7 -133 -25z"/>
<path d="M4643 4119 c-153 -29 -1054 -336 -1333 -454 -122 -51 -127 -52 -205
-48 -69 4 -85 1 -113 -17 -65 -41 -92 -151 -77 -323 10 -126 6 -124 156 -98
183 31 461 27 694 -10 98 -16 266 -73 344 -116 35 -20 96 -68 136 -107 105
-104 137 -186 138 -351 2 -181 -54 -312 -199 -464 -109 -114 -204 -183 -347
-251 -248 -117 -497 -164 -757 -141 -285 24 -482 116 -558 259 -75 140 -62
298 34 420 85 107 240 201 399 242 244 63 664 15 900 -103 104 -52 175 -123
175 -176 0 -35 25 -24 76 32 63 70 114 177 114 239 0 172 -294 346 -655 389
-121 14 -343 7 -445 -15 -316 -68 -563 -227 -701 -451 -79 -127 -94 -189 -94
-380 0 -157 1 -161 33 -241 111 -277 382 -468 751 -529 132 -22 379 -16 516
13 330 71 644 247 824 463 160 192 234 361 252 579 15 191 -13 343 -96 507
-71 141 -146 221 -299 317 -141 89 -267 132 -479 167 -100 16 -198 32 -217 35
-37 7 -55 2 530 152 107 28 218 53 245 57 l50 7 -60 -63 c-88 -92 -86 -90
-106 -134 -29 -64 -25 -111 14 -149 42 -43 134 -76 226 -83 l74 -6 -6 29 c-3
17 3 50 15 81 20 54 31 65 41 39 12 -31 137 -56 387 -76 74 -6 136 -12 137
-14 3 -2 -72 -184 -189 -461 -276 -652 -354 -952 -288 -1102 42 -96 102 -132
216 -133 90 0 141 18 224 79 l66 47 42 -47 c102 -114 279 -103 477 29 63 42
75 44 75 10 0 -26 68 -95 103 -103 42 -11 52 -2 70 66 38 137 91 292 122 351
l32 63 45 -1 c33 0 61 -9 103 -35 90 -53 263 -226 425 -424 211 -257 320 -364
425 -419 152 -79 304 -14 391 167 32 68 61 173 50 184 -3 3 -22 -3 -43 -13
-27 -13 -59 -19 -108 -18 -120 1 -148 18 -495 312 -112 96 -237 199 -277 231
-39 31 -72 58 -72 61 0 3 35 22 78 43 207 102 465 355 562 552 27 54 31 73 27
116 -9 94 -94 178 -226 225 -152 54 -221 28 -397 -149 -67 -67 -150 -159 -185
-205 -35 -45 -65 -81 -66 -79 -2 2 37 91 87 198 127 270 281 620 313 707 30
85 34 166 10 201 -24 33 -111 86 -173 105 -69 20 -196 32 -205 18 -3 -6 -1
-32 5 -59 14 -58 5 -103 -41 -215 -35 -83 -41 -88 -122 -88 l-48 0 0 38 c0 48
-40 133 -72 154 -45 30 -129 48 -220 48 -123 0 -128 -3 -121 -89 3 -37 3 -89
-1 -115 -7 -45 -8 -46 -45 -46 -37 0 -39 2 -46 37 -11 58 -31 89 -81 124 -63
43 -145 70 -234 76 l-75 6 0 -94 c0 -71 -4 -102 -18 -126 -17 -33 -19 -33 -90
-33 -179 0 -411 -25 -514 -56 -18 -5 -6 25 79 191 96 188 100 199 94 243 -12
86 -35 147 -63 173 -34 32 -64 39 -120 28z m1047 -848 c0 -67 1 -71 33 -95 46
-35 115 -58 153 -51 36 6 101 71 153 153 l33 52 79 0 78 0 -21 -57 c-30 -87
-263 -757 -323 -933 -29 -85 -64 -204 -77 -265 l-24 -110 -70 -46 c-132 -89
-234 -128 -247 -95 -7 18 15 108 45 186 32 83 226 468 307 610 114 199 133
242 133 300 0 73 -33 120 -114 159 -74 37 -186 53 -268 40 -70 -11 -87 -27
-71 -67 26 -62 16 -110 -72 -348 -143 -385 -237 -683 -237 -750 0 -47 -203
-147 -260 -129 -30 10 -25 58 19 181 46 129 77 203 160 383 69 149 302 613
411 819 l71 132 54 0 55 0 0 -69z m1048 -442 c6 -73 -70 -248 -160 -371 -106
-144 -215 -217 -339 -226 l-71 -5 15 29 c66 127 498 619 537 612 9 -2 16 -17
18 -39z"/>
<path d="M6253 3810 c-38 -40 -38 -41 -17 -82 l16 -31 19 44 c11 24 19 57 17
73 l-3 30 -32 -34z"/>
<path d="M7829 3180 c-121 -31 -247 -106 -362 -219 -170 -165 -281 -375 -333
-631 -23 -110 -25 -142 -21 -265 7 -193 40 -274 140 -348 67 -50 136 -69 250
-68 304 1 561 131 743 375 76 101 86 129 48 134 -15 2 -34 -13 -68 -54 -68
-83 -154 -148 -270 -204 -128 -62 -209 -83 -316 -84 -74 -1 -92 3 -140 27 -77
38 -93 64 -98 158 -5 84 4 197 17 218 7 11 21 11 80 1 118 -22 286 12 431 85
236 119 370 310 370 525 0 114 -50 237 -117 287 -72 53 -114 66 -218 69 -55 2
-116 -1 -136 -6z m124 -367 c74 -67 -85 -276 -286 -376 -87 -43 -183 -72 -191
-58 -7 11 87 189 134 252 48 65 167 170 222 194 38 17 94 11 121 -12z"/>
<path d="M4133 1375 c-7 -21 4 -32 19 -17 24 24 30 11 26 -53 l-4 -65 28 0
c28 0 37 13 18 25 -14 9 -12 92 2 101 6 4 14 2 16 -4 6 -19 22 -14 22 8 0 18
-7 20 -60 20 -45 0 -62 -4 -67 -15z"/>
<path d="M4350 1380 c0 -5 5 -10 10 -10 6 0 10 -25 10 -55 0 -30 -4 -55 -10
-55 -5 0 -10 -4 -10 -10 0 -5 13 -10 30 -10 27 0 29 2 24 29 -5 26 -3 29 25
33 27 4 31 2 31 -19 0 -13 -4 -23 -10 -23 -5 0 -10 -4 -10 -10 0 -5 13 -10 29
-10 17 0 33 5 36 10 3 6 1 10 -4 10 -7 0 -11 23 -11 55 0 32 4 55 11 55 5 0 7
5 4 10 -3 6 -17 10 -30 10 -13 0 -27 -4 -30 -10 -3 -5 -1 -10 4 -10 6 0 11
-10 11 -23 0 -20 -4 -23 -30 -19 -35 5 -47 19 -31 35 18 18 13 27 -19 27 -16
0 -30 -4 -30 -10z"/>
<path d="M4600 1380 c0 -5 5 -10 10 -10 6 0 10 -25 10 -55 0 -30 -4 -55 -10
-55 -5 0 -10 -4 -10 -10 0 -5 25 -10 55 -10 48 0 55 2 55 20 0 11 -4 20 -10
20 -5 0 -10 -4 -10 -10 0 -5 -9 -10 -21 -10 -15 0 -20 5 -17 23 2 15 9 21 21
19 10 -2 17 3 17 14 0 11 -6 15 -20 11 -16 -4 -20 0 -20 19 0 17 6 24 19 24
11 0 21 -6 24 -12 2 -7 8 -10 12 -6 4 4 5 14 2 23 -7 17 -107 22 -107 5z"/>
<path d="M4935 1380 c-3 -5 -1 -10 4 -10 7 0 11 -23 11 -55 0 -30 -4 -55 -10
-55 -5 0 -10 -4 -10 -10 0 -5 16 -10 35 -10 19 0 35 5 35 10 0 6 -5 10 -11 10
-6 0 -9 10 -7 22 2 14 11 22 26 23 29 2 50 -21 34 -37 -19 -19 -14 -28 18 -28
29 0 40 13 20 25 -5 3 -10 26 -10 50 0 24 5 47 10 50 20 12 9 25 -20 25 -32 0
-37 -9 -19 -27 17 -17 1 -33 -32 -33 -22 0 -29 5 -29 20 0 11 5 20 11 20 5 0
7 5 4 10 -3 6 -17 10 -30 10 -13 0 -27 -4 -30 -10z"/>
<path d="M5206 1369 c-52 -41 -21 -129 45 -129 39 0 79 39 79 79 0 34 -39 71
-75 71 -12 0 -34 -9 -49 -21z m84 -18 c21 -40 1 -91 -35 -91 -21 0 -45 29 -45
55 0 48 59 74 80 36z"/>
<path d="M5410 1380 c0 -5 5 -10 10 -10 6 0 10 -25 10 -55 0 -59 14 -75 62
-75 36 0 48 19 48 77 0 29 5 53 10 53 6 0 10 5 10 10 0 6 -13 10 -30 10 -16 0
-30 -4 -30 -10 0 -5 5 -10 10 -10 6 0 10 -22 10 -49 0 -41 -4 -51 -20 -56 -34
-11 -43 4 -38 66 l4 59 -28 0 c-15 0 -28 -4 -28 -10z"/>
<path d="M5665 1374 c-9 -9 -14 -23 -11 -31 3 -8 6 -16 6 -19 0 -2 14 -10 30
-19 33 -17 38 -32 14 -42 -10 -4 -22 1 -29 10 -16 22 -25 21 -25 -3 0 -35 80
-39 94 -5 9 23 -4 44 -35 61 -16 8 -29 21 -29 29 0 18 37 20 43 3 2 -7 8 -10
12 -6 4 4 5 14 2 23 -8 20 -51 19 -72 -1z"/>
<path d="M5840 1380 c0 -5 5 -10 10 -10 6 0 10 -25 10 -55 0 -30 -4 -55 -10
-55 -5 0 -10 -4 -10 -10 0 -5 25 -10 55 -10 48 0 55 2 55 20 0 11 -4 20 -10
20 -5 0 -10 -4 -10 -10 0 -5 -9 -10 -21 -10 -15 0 -20 5 -17 23 2 15 9 21 21
19 11 -2 17 4 17 17 0 14 -5 18 -20 14 -15 -4 -20 0 -20 16 0 23 35 30 43 9 2
-7 8 -10 12 -6 4 4 5 14 2 23 -7 17 -107 22 -107 5z"/>
<path d="M6195 1365 c-14 -13 -25 -36 -25 -50 0 -36 42 -75 80 -75 65 0 95 83
47 128 -31 29 -72 28 -102 -3z m76 -5 c35 -19 18 -100 -21 -100 -44 0 -65 57
-33 92 19 21 27 22 54 8z"/>
<path d="M6415 1380 c-3 -5 -1 -10 4 -10 7 0 11 -23 11 -55 0 -30 -4 -55 -10
-55 -5 0 -10 -4 -10 -10 0 -5 16 -10 35 -10 19 0 35 5 35 10 0 6 -4 10 -10 10
-5 0 -10 10 -10 21 0 16 5 20 20 16 15 -4 20 0 20 15 0 15 -5 18 -20 13 -16
-5 -20 -2 -20 19 0 19 5 26 20 26 11 0 20 -4 20 -10 0 -5 5 -10 10 -10 6 0 10
9 10 20 0 17 -7 20 -49 20 -28 0 -53 -4 -56 -10z"/>
<path d="M4108 1084 c-4 -3 -4 -12 -1 -20 6 -16 -26 -104 -38 -104 -5 0 -9 -4
-9 -10 0 -5 14 -10 30 -10 17 0 30 5 30 10 0 6 -4 10 -10 10 -5 0 -10 5 -10
10 0 6 16 10 35 10 19 0 35 -4 35 -10 0 -5 -4 -10 -10 -10 -5 0 -10 -4 -10
-10 0 -5 16 -10 35 -10 33 0 48 14 24 22 -7 2 -21 31 -33 63 -15 44 -26 61
-41 63 -12 2 -24 0 -27 -4z m42 -65 c0 -10 -7 -19 -15 -19 -16 0 -19 9 -9 34
8 20 24 11 24 -15z"/>
<path d="M4318 1024 c3 -43 1 -64 -7 -64 -6 0 -11 -4 -11 -10 0 -5 25 -10 55
-10 48 0 55 2 55 20 0 11 -4 20 -10 20 -5 0 -10 -4 -10 -10 0 -5 -9 -10 -20
-10 -18 0 -20 7 -20 55 0 32 4 55 11 55 5 0 8 4 5 9 -3 5 -16 9 -29 9 -22 0
-23 -3 -19 -64z"/>
<path d="M4503 1078 c-2 -5 1 -8 6 -8 7 0 11 -23 11 -55 0 -30 -4 -55 -10 -55
-5 0 -10 -4 -10 -10 0 -5 25 -10 55 -10 48 0 55 2 55 20 0 11 -4 20 -10 20 -5
0 -10 -4 -10 -10 0 -5 -10 -10 -21 -10 -20 0 -21 4 -17 64 4 62 3 64 -20 62
-13 0 -26 -4 -29 -8z"/>
<path d="M4820 1081 c0 -5 4 -12 10 -16 5 -3 17 -33 26 -65 9 -33 22 -60 29
-60 6 0 18 18 25 41 8 22 17 42 21 45 4 2 14 -15 21 -38 8 -24 21 -43 28 -43
7 0 19 23 27 50 8 28 19 54 24 59 16 17 10 31 -16 32 -21 2 -24 -2 -20 -20 3
-11 1 -34 -3 -51 l-9 -30 -22 49 c-24 55 -34 53 -56 -10 l-13 -39 -12 29 c-6
16 -9 38 -8 49 2 15 -4 21 -24 24 -16 2 -28 -1 -28 -6z"/>
<path d="M5134 1079 c-3 -5 0 -9 5 -9 7 0 11 -23 11 -55 0 -30 -4 -55 -10 -55
-5 0 -10 -4 -10 -10 0 -5 17 -10 37 -10 29 0 34 3 25 12 -16 16 -15 45 0 50
37 13 77 -19 48 -37 -20 -12 -9 -25 20 -25 17 0 30 5 30 10 0 6 -4 10 -10 10
-5 0 -10 22 -10 49 0 28 5 53 10 56 19 12 10 22 -20 22 -34 0 -34 0 -18 -27
15 -23 9 -30 -28 -33 -27 -2 -29 1 -28 29 1 27 -2 32 -22 32 -14 0 -27 -4 -30
-9z"/>
<path d="M5402 1067 c-47 -50 -15 -127 52 -127 26 0 40 7 56 27 57 73 -45 167
-108 100z m87 -29 c13 -23 13 -30 1 -52 -26 -49 -80 -28 -80 31 0 55 52 70 79
21z"/>
<path d="M5769 1071 c-51 -41 -17 -131 50 -131 14 0 33 5 41 10 16 10 8 13
-28 10 -27 -2 -62 26 -62 49 0 44 60 81 74 46 8 -21 26 -19 26 4 0 35 -63 43
-101 12z"/>
<path d="M5987 1078 c-60 -46 -30 -138 45 -138 42 0 68 27 68 71 0 65 -64 103
-113 67z m76 -29 c24 -33 2 -89 -34 -89 -39 0 -55 61 -26 98 15 18 44 14 60
-9z"/>
<path d="M6207 1084 c-3 -4 -3 -12 0 -17 10 -16 3 -101 -8 -105 -21 -8 -7 -22
21 -22 17 0 30 5 30 10 0 6 -4 10 -10 10 -9 0 -11 46 -2 63 2 5 13 -10 23 -32
10 -23 21 -41 24 -41 3 0 14 18 24 41 10 22 21 37 23 32 9 -17 7 -63 -2 -63
-6 0 -10 -4 -10 -10 0 -5 14 -10 30 -10 17 0 30 5 30 10 0 6 -4 10 -10 10 -5
0 -10 25 -10 55 0 36 4 55 12 55 8 0 9 3 2 10 -17 17 -44 0 -66 -44 l-21 -41
-21 45 c-20 42 -43 59 -59 44z"/>
<path d="M6488 1023 c3 -42 1 -63 -7 -63 -6 0 -11 -4 -11 -10 0 -5 25 -10 55
-10 48 0 55 2 55 20 0 11 -4 20 -10 20 -5 0 -10 -4 -10 -10 0 -5 -9 -10 -20
-10 -13 0 -20 7 -20 20 0 15 7 20 25 20 16 0 25 6 25 15 0 9 -9 15 -25 15 -16
0 -25 6 -25 16 0 13 7 15 30 11 25 -5 30 -3 30 12 0 16 -7 19 -48 18 l-48 -2
4 -62z"/>
</g>
</svg>
